# Blender v2.91.0 OBJ File: ''
# www.blender.org
mtllib dome_quarter.mtl
o dome_Cylinder.003
v -0.000125 0.018297 3.196284
v -0.000125 5.134373 3.196284
v -0.623689 0.018297 3.134870
v -0.623689 5.134373 3.134870
v -1.223289 0.018297 2.952981
v -1.223289 5.134373 2.952981
v -1.775884 0.018297 2.657613
v -1.775884 5.134373 2.657613
v -2.260236 0.018297 2.260113
v -2.260236 5.134373 2.260114
v -2.657735 0.018297 1.775759
v -2.657735 5.134373 1.775760
v -2.953102 0.018297 1.223165
v -2.953102 5.134373 1.223166
v -3.134989 0.018297 0.623564
v -3.134989 5.134374 0.623565
v -3.196404 0.018297 0.000000
v -3.196404 5.134374 0.000001
v 0.000030 8.993538 0.000007
v 0.000030 5.797257 3.196286
v 0.000030 8.932121 0.623570
v 0.000030 8.750236 1.223169
v 0.000030 8.454867 1.775764
v 0.000030 8.057368 2.260118
v 0.000030 7.573015 2.657615
v 0.000030 7.020422 2.952985
v 0.000030 6.420821 3.134870
v -0.518444 7.573015 2.606549
v -0.576067 7.020422 2.896241
v -0.611551 6.420821 3.074634
v -0.623533 5.797257 3.134870
v -0.121621 8.932121 0.611588
v -0.238597 8.750236 1.199667
v -0.346402 8.454867 1.741643
v -0.440895 8.057368 2.216689
v -0.468054 8.750236 1.130061
v -0.679523 8.454867 1.640593
v -0.864877 8.057368 2.088077
v -1.016993 7.573015 2.455316
v -1.130025 7.020422 2.728200
v -1.199630 6.420821 2.896241
v -1.223133 5.797257 2.952983
v -0.238597 8.932121 0.576104
v -1.640556 7.020422 2.455316
v -1.741606 6.420821 2.606549
v -1.775728 5.797257 2.657617
v -0.346403 8.932121 0.518480
v -0.679523 8.750236 1.017030
v -0.986528 8.454867 1.476495
v -1.255620 8.057368 1.879220
v -1.476458 7.573015 2.209726
v -0.864877 8.750236 0.864913
v -1.255620 8.454867 1.255656
v -1.598109 8.057368 1.598145
v -1.879183 7.573015 1.879218
v -2.088040 7.020422 2.088077
v -2.216653 6.420821 2.216689
v -2.260081 5.797257 2.260117
v -0.440896 8.932121 0.440932
v -2.455280 7.020422 1.640593
v -2.606513 6.420821 1.741642
v -2.657579 5.797257 1.775764
v -0.518444 8.932121 0.346439
v -1.016993 8.750236 0.679559
v -1.476458 8.454867 0.986564
v -1.879183 8.057368 1.255656
v -2.209690 7.573015 1.476494
v -1.640556 8.454867 0.679559
v -2.088040 8.057368 0.864913
v -2.455279 7.573015 1.017028
v -2.728164 7.020422 1.130061
v -2.896205 6.420821 1.199665
v -2.952947 5.797257 1.223168
v -0.576067 8.932121 0.238633
v -1.130025 8.750236 0.468090
v -2.896206 7.020422 0.576103
v -3.074596 6.420821 0.611587
v -3.134833 5.797257 0.623569
v -0.611552 8.932121 0.121657
v -1.199630 8.750236 0.238633
v -1.741607 8.454867 0.346439
v -2.216653 8.057368 0.440931
v -2.606513 7.573015 0.518479
v -1.775727 8.454867 0.000006
v -2.260080 8.057368 0.000006
v -2.657578 7.573015 0.000006
v -2.952946 7.020422 0.000007
v -3.134832 6.420821 0.000005
v -3.196248 5.797257 0.000006
v -0.623533 8.932121 0.000007
v -1.223133 8.750236 0.000006
vt 0.500000 1.000000
vt 0.468750 0.500000
vt 0.500000 0.500000
vt 0.468750 1.000000
vt 0.437500 0.500000
vt 0.437500 1.000000
vt 0.406250 0.500000
vt 0.406250 1.000000
vt 0.375000 0.500000
vt 0.375000 1.000000
vt 0.343750 0.500000
vt 0.343750 1.000000
vt 0.312500 0.500000
vt 0.312500 1.000000
vt 0.281250 0.500000
vt 0.281250 1.000000
vt 0.250000 0.500000
vt 0.250000 0.750000
vt 0.218750 0.687500
vt 0.250000 0.687500
vt 0.218750 0.625000
vt 0.250000 0.625000
vt 0.250000 0.562500
vt 0.218750 0.562500
vt 0.218750 0.500000
vt 0.250000 0.500000
vt 0.250000 0.937500
vt 0.234375 1.000000
vt 0.218750 0.937500
vt 0.218750 0.875000
vt 0.250000 0.875000
vt 0.218750 0.812500
vt 0.250000 0.812500
vt 0.218750 0.750000
vt 0.187500 0.875000
vt 0.187500 0.812500
vt 0.187500 0.750000
vt 0.187500 0.687500
vt 0.187500 0.625000
vt 0.187500 0.562500
vt 0.187500 0.500000
vt 0.203125 1.000000
vt 0.187500 0.937500
vt 0.156250 0.625000
vt 0.156250 0.562500
vt 0.156250 0.500000
vt 0.171875 1.000000
vt 0.156250 0.937500
vt 0.156250 0.875000
vt 0.156250 0.812500
vt 0.156250 0.750000
vt 0.156250 0.687500
vt 0.125000 0.875000
vt 0.125000 0.812500
vt 0.125000 0.750000
vt 0.125000 0.687500
vt 0.125000 0.625000
vt 0.125000 0.562500
vt 0.125000 0.500000
vt 0.140625 1.000000
vt 0.125000 0.937500
vt 0.093750 0.625000
vt 0.093750 0.562500
vt 0.093750 0.500000
vt 0.109375 1.000000
vt 0.093750 0.937500
vt 0.093750 0.875000
vt 0.093750 0.812500
vt 0.093750 0.750000
vt 0.093750 0.687500
vt 0.062500 0.812500
vt 0.062500 0.750000
vt 0.062500 0.687500
vt 0.062500 0.625000
vt 0.062500 0.562500
vt 0.062500 0.500000
vt 0.078125 1.000000
vt 0.062500 0.937500
vt 0.062500 0.875000
vt 0.031250 0.625000
vt 0.031250 0.562500
vt 0.031250 0.500000
vt 0.046875 1.000000
vt 0.031250 0.937500
vt 0.031250 0.875000
vt 0.031250 0.812500
vt 0.031250 0.750000
vt 0.031250 0.687500
vt 0.000000 0.812500
vt 0.000000 0.750000
vt 0.000000 0.687500
vt 0.000000 0.625000
vt 0.000000 0.562500
vt 0.000000 0.500000
vt 0.015625 1.000000
vt 0.000000 0.937500
vt 0.000000 0.875000
vt 0.250000 1.000000
vn -0.0980 0.0000 0.9952
vn -0.1764 -0.4261 0.8873
vn -0.1951 0.0000 0.9808
vn -0.2786 -0.6857 0.6725
vn -0.3827 0.0000 0.9239
vn -0.4041 -0.6857 0.6054
vn -0.5556 0.0001 0.8315
vn -0.5147 -0.6857 0.5147
vn -0.7071 0.0001 0.7071
vn -0.6052 -0.6857 0.4045
vn -0.8315 0.0001 0.5556
vn -0.6724 -0.6857 0.2787
vn -0.9239 0.0001 0.3827
vn -0.7139 -0.6857 0.1420
vn -0.9808 0.0001 0.1951
vn -0.7260 -0.6839 0.0715
vn -0.0698 0.7023 0.7084
vn -0.1626 0.5528 0.8173
vn -0.0818 0.5509 0.8305
vn -0.1804 0.3805 0.9070
vn -0.0907 0.3790 0.9210
vn -0.0962 0.1930 0.9765
vn -0.1914 0.1939 0.9622
vn -0.1948 0.0489 0.9796
vn -0.0979 0.0487 0.9940
vn -0.0198 0.9794 0.2009
vn -0.0629 0.9960 0.0629
vn -0.0392 0.9796 0.1971
vn -0.0757 0.9217 0.3804
vn -0.0382 0.9210 0.3876
vn -0.1092 0.8286 0.5490
vn -0.0551 0.8274 0.5589
vn -0.1385 0.7041 0.6965
vn -0.1484 0.9217 0.3584
vn -0.2142 0.8286 0.5172
vn -0.2718 0.7041 0.6561
vn -0.3189 0.5528 0.7699
vn -0.3539 0.3805 0.8544
vn -0.3754 0.1939 0.9063
vn -0.3822 0.0490 0.9228
vn -0.0769 0.9796 0.1857
vn -0.5138 0.3805 0.7689
vn -0.5450 0.1939 0.8157
vn -0.5549 0.0490 0.8305
vn -0.1117 0.9796 0.1671
vn -0.2155 0.9217 0.3225
vn -0.3110 0.8286 0.4654
vn -0.3945 0.7041 0.5905
vn -0.4630 0.5528 0.6929
vn -0.2743 0.9217 0.2743
vn -0.3958 0.8286 0.3958
vn -0.5021 0.7041 0.5021
vn -0.5893 0.5528 0.5893
vn -0.6539 0.3805 0.6539
vn -0.6937 0.1939 0.6937
vn -0.7063 0.0490 0.7063
vn -0.1421 0.9796 0.1421
vn -0.7689 0.3805 0.5138
vn -0.8157 0.1939 0.5450
vn -0.8305 0.0490 0.5549
vn -0.1671 0.9796 0.1116
vn -0.3225 0.9217 0.2155
vn -0.4654 0.8286 0.3110
vn -0.5905 0.7041 0.3945
vn -0.6929 0.5528 0.4630
vn -0.5172 0.8286 0.2142
vn -0.6561 0.7041 0.2718
vn -0.7699 0.5528 0.3189
vn -0.8544 0.3805 0.3539
vn -0.9063 0.1939 0.3754
vn -0.9228 0.0490 0.3822
vn -0.1857 0.9796 0.0769
vn -0.3584 0.9217 0.1484
vn -0.9070 0.3805 0.1804
vn -0.9622 0.1939 0.1914
vn -0.9796 0.0490 0.1949
vn -0.1971 0.9796 0.0392
vn -0.3804 0.9217 0.0757
vn -0.5490 0.8286 0.1092
vn -0.6965 0.7041 0.1385
vn -0.8173 0.5528 0.1626
vn -0.5589 0.8274 0.0550
vn -0.7084 0.7023 0.0698
vn -0.8305 0.5509 0.0818
vn -0.9210 0.3790 0.0907
vn -0.9765 0.1930 0.0962
vn -0.9940 0.0488 0.0979
vn -0.2009 0.9794 0.0198
vn -0.3876 0.9210 0.0382
vn -0.9952 0.0001 0.0980
usemtl Default_OBJ
s 1
f 2/1/1 3/2/2 1/3/1
f 4/4/3 5/5/4 3/2/2
f 6/6/5 7/7/6 5/5/4
f 8/8/7 9/9/8 7/7/6
f 10/10/9 11/11/10 9/9/8
f 12/12/11 13/13/12 11/11/10
f 14/14/13 15/15/14 13/13/12
f 16/16/15 17/17/16 15/15/14
f 24/18/17 28/19/18 25/20/19
f 25/20/19 29/21/20 26/22/21
f 27/23/22 29/21/20 30/24/23
f 27/23/22 31/25/24 20/26/25
f 21/27/26 19/28/27 32/29/28
f 21/27/26 33/30/29 22/31/30
f 22/31/30 34/32/31 23/33/32
f 23/33/32 35/34/33 24/18/17
f 32/29/28 36/35/34 33/30/29
f 33/30/29 37/36/35 34/32/31
f 35/34/33 37/36/35 38/37/36
f 28/19/18 38/37/36 39/38/37
f 28/19/18 40/39/38 29/21/20
f 30/24/23 40/39/38 41/40/39
f 30/24/23 42/41/40 31/25/24
f 32/29/28 19/42/27 43/43/41
f 39/38/37 44/44/42 40/39/38
f 40/39/38 45/45/43 41/40/39
f 42/41/40 45/45/43 46/46/44
f 43/43/41 19/47/27 47/48/45
f 43/43/41 48/49/46 36/35/34
f 37/36/35 48/49/46 49/50/47
f 38/37/36 49/50/47 50/51/48
f 39/38/37 50/51/48 51/52/49
f 47/48/45 52/53/50 48/49/46
f 48/49/46 53/54/51 49/50/47
f 49/50/47 54/55/52 50/51/48
f 51/52/49 54/55/52 55/56/53
f 51/52/49 56/57/54 44/44/42
f 45/45/43 56/57/54 57/58/55
f 45/45/43 58/59/56 46/46/44
f 47/48/45 19/60/27 59/61/57
f 55/56/53 60/62/58 56/57/54
f 57/58/55 60/62/58 61/63/59
f 58/59/56 61/63/59 62/64/60
f 59/61/57 19/65/27 63/66/61
f 59/61/57 64/67/62 52/53/50
f 52/53/50 65/68/63 53/54/51
f 53/54/51 66/69/64 54/55/52
f 55/56/53 66/69/64 67/70/65
f 64/67/62 68/71/66 65/68/63
f 65/68/63 69/72/67 66/69/64
f 67/70/65 69/72/67 70/73/68
f 67/70/65 71/74/69 60/62/58
f 61/63/59 71/74/69 72/75/70
f 61/63/59 73/76/71 62/64/60
f 63/66/61 19/77/27 74/78/72
f 63/66/61 75/79/73 64/67/62
f 72/75/70 76/80/74 77/81/75
f 72/75/70 78/82/76 73/76/71
f 74/78/72 19/83/27 79/84/77
f 75/79/73 79/84/77 80/85/78
f 68/71/66 80/85/78 81/86/79
f 69/72/67 81/86/79 82/87/80
f 70/73/68 82/87/80 83/88/81
f 70/73/68 76/80/74 71/74/69
f 80/85/78 84/89/82 81/86/79
f 81/86/79 85/90/83 82/87/80
f 83/88/81 85/90/83 86/91/84
f 83/88/81 87/92/85 76/80/74
f 77/81/75 87/92/85 88/93/86
f 77/81/75 89/94/87 78/82/76
f 79/84/77 19/95/27 90/96/88
f 79/84/77 91/97/89 80/85/78
f 16/16/15 89/94/87 18/98/90
f 14/14/13 78/82/76 16/16/15
f 12/12/11 73/76/71 14/14/13
f 10/10/9 62/64/60 12/12/11
f 8/8/7 58/59/56 10/10/9
f 6/6/5 46/46/44 8/8/7
f 4/4/3 42/41/40 6/6/5
f 2/1/1 31/25/24 4/4/3
f 2/1/1 4/4/3 3/2/2
f 4/4/3 6/6/5 5/5/4
f 6/6/5 8/8/7 7/7/6
f 8/8/7 10/10/9 9/9/8
f 10/10/9 12/12/11 11/11/10
f 12/12/11 14/14/13 13/13/12
f 14/14/13 16/16/15 15/15/14
f 16/16/15 18/98/90 17/17/16
f 24/18/17 35/34/33 28/19/18
f 25/20/19 28/19/18 29/21/20
f 27/23/22 26/22/21 29/21/20
f 27/23/22 30/24/23 31/25/24
f 21/27/26 32/29/28 33/30/29
f 22/31/30 33/30/29 34/32/31
f 23/33/32 34/32/31 35/34/33
f 32/29/28 43/43/41 36/35/34
f 33/30/29 36/35/34 37/36/35
f 35/34/33 34/32/31 37/36/35
f 28/19/18 35/34/33 38/37/36
f 28/19/18 39/38/37 40/39/38
f 30/24/23 29/21/20 40/39/38
f 30/24/23 41/40/39 42/41/40
f 39/38/37 51/52/49 44/44/42
f 40/39/38 44/44/42 45/45/43
f 42/41/40 41/40/39 45/45/43
f 43/43/41 47/48/45 48/49/46
f 37/36/35 36/35/34 48/49/46
f 38/37/36 37/36/35 49/50/47
f 39/38/37 38/37/36 50/51/48
f 47/48/45 59/61/57 52/53/50
f 48/49/46 52/53/50 53/54/51
f 49/50/47 53/54/51 54/55/52
f 51/52/49 50/51/48 54/55/52
f 51/52/49 55/56/53 56/57/54
f 45/45/43 44/44/42 56/57/54
f 45/45/43 57/58/55 58/59/56
f 55/56/53 67/70/65 60/62/58
f 57/58/55 56/57/54 60/62/58
f 58/59/56 57/58/55 61/63/59
f 59/61/57 63/66/61 64/67/62
f 52/53/50 64/67/62 65/68/63
f 53/54/51 65/68/63 66/69/64
f 55/56/53 54/55/52 66/69/64
f 64/67/62 75/79/73 68/71/66
f 65/68/63 68/71/66 69/72/67
f 67/70/65 66/69/64 69/72/67
f 67/70/65 70/73/68 71/74/69
f 61/63/59 60/62/58 71/74/69
f 61/63/59 72/75/70 73/76/71
f 63/66/61 74/78/72 75/79/73
f 72/75/70 71/74/69 76/80/74
f 72/75/70 77/81/75 78/82/76
f 75/79/73 74/78/72 79/84/77
f 68/71/66 75/79/73 80/85/78
f 69/72/67 68/71/66 81/86/79
f 70/73/68 69/72/67 82/87/80
f 70/73/68 83/88/81 76/80/74
f 80/85/78 91/97/89 84/89/82
f 81/86/79 84/89/82 85/90/83
f 83/88/81 82/87/80 85/90/83
f 83/88/81 86/91/84 87/92/85
f 77/81/75 76/80/74 87/92/85
f 77/81/75 88/93/86 89/94/87
f 79/84/77 90/96/88 91/97/89
f 16/16/15 78/82/76 89/94/87
f 14/14/13 73/76/71 78/82/76
f 12/12/11 62/64/60 73/76/71
f 10/10/9 58/59/56 62/64/60
f 8/8/7 46/46/44 58/59/56
f 6/6/5 42/41/40 46/46/44
f 4/4/3 31/25/24 42/41/40
f 2/1/1 20/26/25 31/25/24
